<svg width="256" height="256" viewBox="0 0 256 256" fill="none" xmlns="http://www.w3.org/2000/svg">
<g clip-path="url(#clip0_1181_28)">
<path d="M190.926 33.6747C199.341 32.5703 207.85 34.8539 214.581 40.0231C221.312 45.1923 225.714 52.8237 226.818 61.2385L240.699 166.998C241.803 175.413 239.52 183.922 234.35 190.653C229.181 197.384 221.55 201.786 213.135 202.89L65.0714 222.323C56.6567 223.427 48.1478 221.144 41.4168 215.974C34.6857 210.805 30.2838 203.174 29.1794 194.759L15.2989 88.9994C14.1945 80.5846 16.4781 72.0758 21.6473 65.3447C26.8165 58.6137 34.4479 54.2117 42.8627 53.1073L190.926 33.6747ZM57.7085 83.4333L56.3751 83.6836C53.7402 84.3533 51.4604 86.0039 50.0015 88.298C48.5427 90.5922 48.015 93.3569 48.5261 96.0271C49.0373 98.6973 50.5487 101.072 52.7517 102.665C54.9547 104.258 57.6829 104.95 60.3789 104.599L61.7123 104.349C64.3472 103.679 66.627 102.029 68.0859 99.7344C69.5447 97.4402 70.0724 94.6756 69.5613 92.0054C69.0501 89.3351 67.5387 86.9608 65.3357 85.3676C63.1327 83.7744 60.4045 83.0825 57.7085 83.4333ZM89.4364 79.2692L88.103 79.5195C85.4681 80.1892 83.1883 81.8397 81.7294 84.1339C80.2706 86.4281 79.7429 89.1927 80.254 91.863C80.7652 94.5332 82.2766 96.9075 84.4796 98.5007C86.6826 100.094 89.4108 100.786 92.1068 100.435L93.4402 100.185C96.0752 99.515 98.3549 97.8645 99.8138 95.5703C101.273 93.2761 101.8 90.5115 101.289 87.8412C100.778 85.171 99.2666 82.7967 97.0636 81.2035C94.8606 79.6103 92.1324 78.9184 89.4364 79.2692Z" fill="black"/>
</g>
<defs>
<clipPath id="clip0_1181_28">
<rect width="256" height="256" fill="white"/>
</clipPath>
</defs>
</svg>
