<svg viewBox="0 0 25 24" xmlns="http://www.w3.org/2000/svg" width="25" height="24"><path d="M11.847.1c5.433 0 10.01 3.615 11.28 8.514a9.634 9.634 0 0 1 1.654 5.402c0 5.48-4.602 9.921-10.28 9.921-2.137 0-4.121-.629-5.765-1.705C3.83 20.914.219 16.558.219 11.37.219 5.133 5.437.1 11.847.1Zm0 1.563c-5.56 0-10.066 4.346-10.066 9.707 0 5.36 4.507 9.707 10.066 9.707 5.56 0 10.067-4.347 10.067-9.707 0-5.361-4.507-9.707-10.067-9.707Zm.077 3.754c3.87 0 5.18 2.631 5.239 4.127h-2.798c-.06-.838-.774-2.094-2.5-2.094-1.845 0-3.036 1.615-3.036 3.589s1.19 3.589 3.036 3.589c1.667 0 2.38-1.316 2.679-2.632h-2.68v-1.077h5.622v5.503H15.02v-3.47c-.179 1.257-.953 3.71-3.988 3.71-3.036 0-4.822-2.453-4.822-5.504 0-3.17 1.964-5.741 5.714-5.741Z" fill="currentColor"></path></svg>
